<?xml version="1.0" encoding="UTF-8" standalone="no"?>
<!-- Created with Inkscape (http://www.inkscape.org/) -->

<svg
   width="102.46069mm"
   height="20.2836mm"
   viewBox="0 0 102.46069 20.2836"
   version="1.1"
   id="svg2185"
   inkscape:version="1.1.2 (0a00cf5339, 2022-02-04)"
   sodipodi:docname="logo_only_text.svg"
   xmlns:inkscape="http://www.inkscape.org/namespaces/inkscape"
   xmlns:sodipodi="http://sodipodi.sourceforge.net/DTD/sodipodi-0.dtd"
   xmlns="http://www.w3.org/2000/svg"
   xmlns:svg="http://www.w3.org/2000/svg">
  <sodipodi:namedview
     id="namedview2187"
     pagecolor="#505050"
     bordercolor="#eeeeee"
     borderopacity="1"
     inkscape:pageshadow="0"
     inkscape:pageopacity="0"
     inkscape:pagecheckerboard="0"
     inkscape:document-units="mm"
     showgrid="false"
     fit-margin-top="0"
     fit-margin-left="0"
     fit-margin-right="0"
     fit-margin-bottom="0"
     inkscape:zoom="0.85165544"
     inkscape:cx="251.86242"
     inkscape:cy="125.63766"
     inkscape:window-width="1920"
     inkscape:window-height="1022"
     inkscape:window-x="0"
     inkscape:window-y="20"
     inkscape:window-maximized="1"
     inkscape:current-layer="layer1" />
  <defs
     id="defs2182" />
  <g
     inkscape:label="Ebene 1"
     inkscape:groupmode="layer"
     id="layer1"
     transform="translate(-58.746643,-116.61132)">
    <path
       d="m 82.475005,116.61139 v 13.12069 c 0,0.36407 0.06985,0.7194 0.197379,1.05278 0.126736,0.31776 0.301096,0.59055 0.526521,0.83344 0.22569,0.24262 0.4826,0.44079 0.778933,0.59187 0.29554,0.13679 0.615686,0.21511 0.954352,0.23045 h 0.02196 5.583766 0.252413 v -0.022 c 0.309827,-0.0302 0.60616,-0.12277 0.888471,-0.27411 0.281781,-0.15134 0.515673,-0.34951 0.713052,-0.59214 0.19685,-0.24262 0.35851,-0.52017 0.471752,-0.82232 0.126735,-0.30321 0.186531,-0.62839 0.186531,-0.97631 h -1.524794 c 0,0.28813 -0.09948,0.54477 -0.296333,0.75671 -0.183621,0.19658 -0.40931,0.29606 -0.691092,0.29606 H 84.95415 c -0.268023,-0.0153 -0.497152,-0.12144 -0.679979,-0.31776 -0.183886,-0.21299 -0.274373,-0.46911 -0.274373,-0.75697 v -5.97879 c 0,-0.30322 0.09049,-0.54928 0.274373,-0.74586 0.19685,-0.21273 0.441325,-0.31803 0.7239,-0.31803 h 8.052064 v -1.64571 h -8.052064 -0.06588 c -0.169333,0 -0.327554,0.0315 -0.4826,0.0767 -0.141287,0.0302 -0.294745,0.0775 -0.449791,0.15346 v -4.66223 z m 11.836664,0 v 1.59094 h 11.639281 11.20061 11.18897 11.2006 11.09081 v 10.21371 0.2085 3.81767 h 1.52505 v -3.25782 -0.7022 c 0.028,-0.25823 0.13521,-0.47678 0.31803,-0.65828 0.19765,-0.18204 0.42651,-0.27385 0.68025,-0.27385 h 5.53984 c 0.28178,0 0.51885,0.10531 0.70194,0.31777 0.19765,0.19685 0.29634,0.45429 0.29634,0.75697 v 3.81794 h 1.51394 v -3.81794 c 0,-0.37968 -0.0598,-0.73475 -0.18653,-1.05278 -0.12674,-0.31803 -0.30083,-0.59055 -0.52626,-0.8337 0.22596,-0.25797 0.40005,-0.54822 0.52626,-0.86624 0.12674,-0.31777 0.18653,-0.66702 0.18653,-1.03082 v -3.84069 h -1.51394 v 3.83989 c 0,0.28814 -0.0987,0.54478 -0.29634,0.75671 -0.18283,0.2122 -0.42016,0.31803 -0.70194,0.31803 h -4.377 -1.16284 c -0.36698,0 -0.70221,0.0717 -0.99828,0.20849 v -9.46705 -0.0439 h -1.41525 -0.1098 -11.09081 -11.2006 -11.18897 -11.20034 z m -35.54333,0.022 v 7.0538 0.0878 5.95683 c 0,0.37941 0.059,0.74162 0.186531,1.07473 0.140494,0.31803 0.323056,0.59082 0.548481,0.83371 0.22569,0.24262 0.493713,0.44079 0.789781,0.59187 0.309827,0.13679 0.634207,0.20849 0.987161,0.20849 h 5.539846 c 0.337872,0 0.658283,-0.0717 0.954352,-0.20849 0.309827,-0.15108 0.574675,-0.34925 0.800893,-0.59187 0.22569,-0.24289 0.410105,-0.51568 0.537634,-0.83371 0.140493,-0.3339 0.208491,-0.69611 0.208491,-1.07473 v -5.95683 c 0,-0.36407 -0.06773,-0.70194 -0.208491,-1.01997 -0.127529,-0.33417 -0.311944,-0.62362 -0.537634,-0.86651 -0.226218,-0.24262 -0.490802,-0.43418 -0.800893,-0.57018 -0.296069,-0.15108 -0.61648,-0.23019 -0.954352,-0.23019 h -5.539846 c -0.366713,0 -0.691886,0.0717 -0.987161,0.20823 v -4.66222 z m 11.858889,4.43204 v 8.66669 c 0,0.36407 0.059,0.7194 0.186531,1.05278 0.140494,0.33364 0.322792,0.61277 0.548482,0.85566 0.225689,0.24262 0.4826,0.4408 0.778933,0.59187 0.309827,0.13679 0.645054,0.2085 0.998273,0.2085 h 5.539846 c 0.338137,0 0.673893,-0.0788 0.998272,-0.23046 v 1.97512 c 0,0.28786 -0.09128,0.5371 -0.274108,0.73448 -0.145521,0.16801 -0.3175,0.27332 -0.515673,0.3183 -0.01032,0.002 -0.02249,-0.002 -0.03281,0 H 69.014857 58.746643 v 1.65655 h 10.268214 9.708621 0.164571 v -0.0111 c 0.277019,-0.0315 0.541602,-0.11483 0.789781,-0.2413 0.309827,-0.13653 0.575204,-0.32729 0.800894,-0.57018 0.225689,-0.24262 0.398991,-0.52281 0.526521,-0.85513 0.126735,-0.3183 0.197379,-0.66702 0.197379,-1.03082 v -4.45399 -1.48141 -7.18502 H 79.67783 v 7.18502 1.48141 c 0,0.30321 -0.09922,0.56647 -0.296069,0.7784 -0.183885,0.19685 -0.420423,0.29633 -0.702204,0.29633 h -5.539846 c -0.28231,0 -0.527314,-0.0995 -0.7239,-0.29633 -0.18362,-0.21272 -0.274373,-0.47572 -0.274373,-0.7784 v -8.66643 z m 26.218621,0 c -0.352425,0 -0.677334,0.0791 -0.987161,0.23019 -0.296333,0.13679 -0.564356,0.32755 -0.789781,0.57017 -0.22569,0.24316 -0.407988,0.53314 -0.548481,0.86651 -0.127529,0.33338 -0.186532,0.67787 -0.186532,1.04193 v 5.9571 c 0,0.37915 0.059,0.74136 0.186532,1.07474 0.140493,0.31802 0.322791,0.59081 0.548481,0.8337 0.22569,0.24262 0.493712,0.44079 0.789781,0.59187 0.309827,0.13679 0.635,0.20849 0.987161,0.20849 h 5.550961 c 0.33813,0 0.65484,-0.0717 0.96546,-0.20849 0.30983,-0.15108 0.57521,-0.34925 0.80063,-0.59187 0.22569,-0.24289 0.41063,-0.51568 0.53763,-0.8337 0.1405,-0.33391 0.2085,-0.69612 0.2085,-1.07474 h -1.52506 c 0,0.30321 -0.0987,0.56647 -0.29607,0.7784 -0.18389,0.19659 -0.40931,0.29607 -0.69109,0.29607 h -5.550961 c -0.282311,0 -0.515673,-0.0995 -0.713052,-0.29607 -0.183621,-0.21272 -0.274373,-0.47598 -0.274373,-0.7784 v -2.16112 h 6.538116 c 0.33814,0 0.64717,-0.0609 0.94351,-0.19738 0.29607,-0.13679 0.56435,-0.32094 0.78978,-0.54848 0.22542,-0.22728 0.40719,-0.49795 0.54848,-0.80063 0.14049,-0.31803 0.2159,-0.6559 0.23045,-1.0197 v -1.25095 c 0,-0.36407 -0.068,-0.70168 -0.20849,-1.01997 -0.12674,-0.33417 -0.31194,-0.62336 -0.53763,-0.86625 -0.22569,-0.24288 -0.49081,-0.43444 -0.80063,-0.57044 -0.31062,-0.15108 -0.62733,-0.23019 -0.96547,-0.23019 z m 9.346671,0 2.53418,8.68865 c 0.0987,0.34766 0.22833,0.69744 0.38391,1.03082 0.15478,0.31803 0.33655,0.59822 0.54848,0.85566 0.21114,0.24262 0.44503,0.4408 0.71305,0.59187 0.28178,0.13679 0.6096,0.2085 0.97631,0.2085 h 0.10981 0.099 c 0.35243,0 0.67204,-0.0717 0.95435,-0.2085 0.28178,-0.15107 0.5342,-0.34925 0.74586,-0.59187 0.21114,-0.25823 0.3855,-0.53763 0.52652,-0.85566 0.15505,-0.33391 0.28523,-0.68289 0.38391,-1.03082 l 1.75525,-6.00101 1.75525,6.00101 c 0.0987,0.34793 0.21722,0.69744 0.37306,1.03082 0.15478,0.31776 0.33655,0.59796 0.54848,0.8554 0.2114,0.24262 0.45614,0.44079 0.7239,0.59187 0.28178,0.13679 0.6096,0.20849 0.97631,0.20849 h 0.099 0.1098 c 0.35137,0 0.67178,-0.0717 0.95356,-0.20849 0.28178,-0.15108 0.52387,-0.34925 0.73501,-0.59187 0.21193,-0.25824 0.38603,-0.53764 0.52626,-0.8554 0.15531,-0.33417 0.28522,-0.68289 0.38391,-1.03082 l 2.55614,-8.68865 h -1.57957 l -2.54529,8.68865 c -0.0841,0.27252 -0.20373,0.52255 -0.37306,0.73475 -0.15478,0.21167 -0.37624,0.31776 -0.65723,0.31776 h -0.1098 -0.099 c -0.28231,0 -0.51171,-0.10583 -0.67998,-0.31776 -0.15558,-0.21299 -0.27781,-0.46223 -0.36195,-0.73475 l -2.53418,-8.68865 h -1.59068 l -2.53417,8.68865 c -0.0852,0.27252 -0.21538,0.52255 -0.38418,0.73475 -0.15557,0.21167 -0.37624,0.31776 -0.65802,0.31776 h -0.099 -0.1098 c -0.28231,0 -0.51144,-0.10583 -0.67998,-0.31776 -0.15558,-0.21299 -0.2667,-0.46223 -0.35111,-0.73475 l -2.54502,-8.68865 z m 23.24523,0 c -0.35216,0 -0.6768,0.0791 -0.98689,0.23019 -0.29634,0.13679 -0.56436,0.32755 -0.78978,0.57017 -0.22569,0.24316 -0.40746,0.53314 -0.54822,0.86651 -0.12674,0.33338 -0.18653,0.67787 -0.18653,1.04193 v 5.9571 c 0,0.37915 0.0598,0.74136 0.18653,1.07474 0.14102,0.31802 0.32305,0.59081 0.54822,0.8337 0.22595,0.24262 0.49371,0.44079 0.78978,0.59187 0.31062,0.13679 0.63473,0.20849 0.98689,0.20849 h 5.55096 c 0.33867,0 0.65537,-0.0717 0.9652,-0.20849 0.31062,-0.15108 0.5752,-0.34925 0.80063,-0.59187 0.22595,-0.24289 0.41063,-0.51568 0.53763,-0.8337 0.14129,-0.33391 0.20849,-0.69612 0.20849,-1.07474 h -1.52479 c 0,0.30321 -0.0987,0.56647 -0.29633,0.7784 -0.18309,0.19659 -0.40931,0.29607 -0.69109,0.29607 h -5.5507 c -0.28178,0 -0.51567,-0.0995 -0.71305,-0.29607 -0.18309,-0.21272 -0.27411,-0.47598 -0.27411,-0.7784 v -2.16112 h 6.53812 c 0.33867,0 0.64717,-0.0609 0.94324,-0.19738 0.2958,-0.13679 0.56436,-0.32094 0.78952,-0.54848 0.22569,-0.22728 0.40798,-0.49795 0.54848,-0.80063 0.14129,-0.31803 0.21669,-0.6559 0.23045,-1.0197 v -1.25095 c 0,-0.36407 -0.0672,-0.70168 -0.20849,-1.01997 -0.12674,-0.33417 -0.31195,-0.62336 -0.53763,-0.86625 -0.22569,-0.24288 -0.49028,-0.43444 -0.80063,-0.57044 -0.3101,-0.15108 -0.6268,-0.23019 -0.9652,-0.23019 z m 11.85863,0 c -0.35243,0 -0.67681,0.0791 -0.9869,0.23019 -0.29633,0.13679 -0.56462,0.32755 -0.78978,0.57017 -0.22569,0.24316 -0.40719,0.53314 -0.54848,0.86651 -0.12674,0.3183 -0.18653,0.66305 -0.18653,1.04193 v 8.66643 h 1.52506 v -8.66616 c 0,-0.30321 0.0913,-0.54928 0.27437,-0.7456 0.19711,-0.21299 0.43127,-0.31829 0.71279,-0.31829 h 5.53984 c 0.28152,0 0.51911,0.1053 0.70194,0.31829 0.19738,0.19632 0.29607,0.44292 0.29607,0.7456 h 1.52506 c 0,-0.37968 -0.0783,-0.72364 -0.21934,-1.04193 -0.12674,-0.33417 -0.30136,-0.62362 -0.52652,-0.86651 -0.22596,-0.24262 -0.49054,-0.43418 -0.8009,-0.57018 -0.30982,-0.15108 -0.63764,-0.23019 -0.97604,-0.23019 z m -80.015823,1.64571 h 5.539846 c 0.281781,0 0.518319,0.1053 0.70194,0.31829 0.19685,0.19632 0.296333,0.44291 0.296333,0.7456 v 5.95683 c 0,0.30321 -0.09948,0.56673 -0.296333,0.77867 -0.183621,0.19658 -0.420159,0.29606 -0.70194,0.29606 h -5.539846 c -0.282575,0 -0.516202,-0.0995 -0.713052,-0.29606 -0.183621,-0.21273 -0.274108,-0.47599 -0.274108,-0.77867 v -5.95683 -0.0439 c 0.01376,-0.2884 0.112448,-0.52732 0.296069,-0.72364 0.19685,-0.19764 0.423068,-0.29633 0.691091,-0.29633 z m 35.565292,0 h 5.550961 c 0.28178,0 0.5072,0.1053 0.69109,0.31829 0.19738,0.19632 0.29607,0.44291 0.29607,0.7456 v 1.14088 c -0.0143,0.28813 -0.12065,0.52626 -0.31803,0.72364 -0.18362,0.19685 -0.4019,0.29633 -0.66913,0.29633 h -6.538122 v -2.16112 c 0,-0.30321 0.09049,-0.54927 0.274373,-0.74559 0.197115,-0.21273 0.430477,-0.31803 0.712788,-0.31803 z m 32.591901,0 h 5.55096 c 0.28178,0 0.508,0.1053 0.69109,0.31829 0.19765,0.19632 0.29634,0.44291 0.29634,0.7456 v 1.14088 c -0.014,0.28813 -0.12065,0.52626 -0.3183,0.72364 -0.18309,0.19685 -0.40137,0.29633 -0.66913,0.29633 h -6.53812 v -2.16112 c 0,-0.30321 0.091,-0.54927 0.27411,-0.74559 0.19738,-0.21273 0.43127,-0.31803 0.71305,-0.31803 z"
       id="text2824-8_1_"
       style="stroke-width:0.264583" />
  </g>
</svg>
