<?xml version="1.0" encoding="UTF-8" standalone="no"?>
<!-- Created with Inkscape (http://www.inkscape.org/) -->

<svg
   xmlns:dc="http://purl.org/dc/elements/1.1/"
   xmlns:cc="http://creativecommons.org/ns#"
   xmlns:rdf="http://www.w3.org/1999/02/22-rdf-syntax-ns#"
   xmlns:svg="http://www.w3.org/2000/svg"
   xmlns="http://www.w3.org/2000/svg"
   xmlns:sodipodi="http://sodipodi.sourceforge.net/DTD/sodipodi-0.dtd"
   xmlns:inkscape="http://www.inkscape.org/namespaces/inkscape"
   id="svg4337"
   version="1.1"
   viewBox="0 0 226 269.28458"
   height="269.28458mm"
   width="226mm"
   inkscape:version="0.92.3 (2405546, 2018-03-11)"
   sodipodi:docname="Bytewerk-src.svg">
  <defs
     id="defs4331" />
  <sodipodi:namedview
     inkscape:window-maximized="1"
     inkscape:window-y="18"
     inkscape:window-x="0"
     inkscape:window-height="1062"
     inkscape:window-width="1920"
     fit-margin-bottom="0"
     fit-margin-right="0"
     fit-margin-left="0"
     fit-margin-top="0"
     inkscape:snap-bbox-midpoints="true"
     inkscape:snap-bbox-edge-midpoints="true"
     inkscape:snap-bbox="true"
     inkscape:measure-end="-425.391,0"
     inkscape:measure-start="-375,0"
     inkscape:guide-bbox="true"
     showguides="true"
     inkscape:snap-global="false"
     showgrid="false"
     inkscape:current-layer="g3007"
     inkscape:document-units="mm"
     inkscape:cy="437.61842"
     inkscape:cx="322.49943"
     inkscape:zoom="0.45254834"
     inkscape:pageshadow="2"
     inkscape:pageopacity="0.0"
     borderopacity="1.0"
     bordercolor="#666666"
     pagecolor="#ffffff"
     id="base" />
  <metadata
     id="metadata4334">
    <rdf:RDF>
      <cc:Work
         rdf:about="">
        <dc:format>image/svg+xml</dc:format>
        <dc:type
           rdf:resource="http://purl.org/dc/dcmitype/StillImage" />
        <dc:title></dc:title>
      </cc:Work>
    </rdf:RDF>
  </metadata>
  <g
     inkscape:label="Ebene 1"
     inkscape:groupmode="layer"
     id="layer1"
     transform="translate(113,-185.07135)">
    <g
       id="g3007"
       transform="matrix(0.26458333,0,0,0.26458333,-270.81671,50.30938)">
      <rect
         style="opacity:1;vector-effect:none;fill:#000000;fill-opacity:1;fill-rule:evenodd;stroke:none;stroke-width:46.21856308;stroke-linecap:round;stroke-linejoin:round;stroke-miterlimit:4;stroke-dasharray:none;stroke-dashoffset:0;stroke-opacity:1;paint-order:normal"
         id="rect5334-6"
         width="854.17322"
         height="1017.7685"
         x="596.4726"
         y="509.33658"
         rx="86.929138" />
      <rect
         style="opacity:1;vector-effect:none;fill:#ffffff;fill-opacity:1;fill-rule:evenodd;stroke:none;stroke-width:37.47023773;stroke-linecap:round;stroke-linejoin:round;stroke-miterlimit:4;stroke-dasharray:none;stroke-dashoffset:0;stroke-opacity:1;paint-order:normal"
         id="rect5334"
         width="755.90552"
         height="755.90552"
         x="645.60645"
         y="554.42126"
         rx="37.795277" />
      <path
         style="opacity:1;fill:none;fill-opacity:1;fill-rule:evenodd;stroke:#000000;stroke-width:14.21659851;stroke-linecap:round;stroke-linejoin:round;stroke-miterlimit:4;stroke-dasharray:none;stroke-dashoffset:0;stroke-opacity:1;paint-order:normal"
         id="path3646"
         sodipodi:type="arc"
         sodipodi:cx="1152.621"
         sodipodi:cy="1174.6068"
         sodipodi:rx="77.670067"
         sodipodi:ry="77.420296"
         sodipodi:start="0"
         sodipodi:end="1.6580628"
         sodipodi:open="true"
         d="m 1230.291,1174.6068 a 77.670067,77.420296 0 0 1 -25.1969,57.0802 77.670067,77.420296 0 0 1 -59.2425,20.0455"
         transform="matrix(0.99885915,-0.04775347,0.0480628,0.99884432,0,0)" />
      <path
         style="opacity:1;fill:none;fill-opacity:1;fill-rule:evenodd;stroke:#000000;stroke-width:14.21659756;stroke-linecap:round;stroke-linejoin:round;stroke-miterlimit:4;stroke-dasharray:none;stroke-dashoffset:0;stroke-opacity:1;paint-order:normal"
         id="path3010"
         sodipodi:type="arc"
         sodipodi:cx="1163.9485"
         sodipodi:cy="1091.637"
         sodipodi:rx="190.29301"
         sodipodi:ry="189.67834"
         sodipodi:start="0.12217305"
         sodipodi:end="1.4660766"
         d="m 1352.8231,1114.7529 a 190.29301,189.67834 0 0 1 -168.9836,165.5233"
         sodipodi:open="true"
         transform="matrix(0.99996721,-0.0080981,0.00815068,0.99996678,0,0)" />
      <ellipse
         style="opacity:1;fill:#000000;fill-opacity:1;fill-rule:nonzero;stroke:#000000;stroke-width:0;stroke-miterlimit:4;stroke-dasharray:none;stroke-dashoffset:0;stroke-opacity:1;paint-order:normal"
         id="path2876"
         cx="61.436581"
         cy="1493.905"
         rx="168.01476"
         ry="83.348412"
         transform="matrix(0.70824989,-0.70596182,0.70824989,0.70596182,0,0)" />
      <rect
         style="opacity:1;fill:#000000;fill-opacity:1;fill-rule:nonzero;stroke:#000000;stroke-width:0;stroke-miterlimit:4;stroke-dasharray:none;stroke-dashoffset:0;stroke-opacity:1;paint-order:normal"
         id="rect2878"
         width="206.7874"
         height="230.03056"
         x="-41.957069"
         y="1234.2689"
         transform="matrix(0.70824989,-0.70596182,0.70824989,0.70596182,0,0)" />
      <ellipse
         style="opacity:1;fill:#000000;fill-opacity:1;fill-rule:nonzero;stroke:#000000;stroke-width:0;stroke-miterlimit:4;stroke-dasharray:none;stroke-dashoffset:0;stroke-opacity:1;paint-order:normal"
         id="path2880"
         cx="61.436581"
         cy="1233.8475"
         rx="103.39371"
         ry="58.775398"
         transform="matrix(0.70824989,-0.70596182,0.70824989,0.70596182,0,0)" />
      <rect
         style="opacity:1;fill:#000000;fill-opacity:1;fill-rule:nonzero;stroke:#000000;stroke-width:0;stroke-miterlimit:4;stroke-dasharray:none;stroke-dashoffset:0;stroke-opacity:1;paint-order:normal"
         id="rect2890"
         width="85.112679"
         height="38.748077"
         x="119.62981"
         y="1330.1345"
         transform="matrix(0.70824989,-0.70596182,0.70824989,0.70596182,0,0)" />
      <rect
         style="opacity:1;fill:#000000;fill-opacity:1;fill-rule:nonzero;stroke:#000000;stroke-width:0;stroke-miterlimit:4;stroke-dasharray:none;stroke-dashoffset:0;stroke-opacity:1;paint-order:normal"
         id="rect2892"
         width="79.309547"
         height="38.748077"
         x="-82.630798"
         y="1330.1345"
         transform="matrix(0.70824989,-0.70596182,0.70824989,0.70596182,0,0)" />
      <rect
         style="opacity:1;fill:#000000;fill-opacity:1;fill-rule:nonzero;stroke:#000000;stroke-width:0;stroke-miterlimit:4;stroke-dasharray:none;stroke-dashoffset:0;stroke-opacity:1;paint-order:normal"
         id="rect2902"
         width="258.48416"
         height="136.89842"
         x="190.62683"
         y="1281.0106"
         transform="matrix(0.70824989,-0.70596182,0.70824989,0.70596182,0,0)" />
      <rect
         style="opacity:1;fill:#000000;fill-opacity:1;fill-rule:nonzero;stroke:#000000;stroke-width:0;stroke-miterlimit:4;stroke-dasharray:none;stroke-dashoffset:0;stroke-opacity:1;paint-order:normal"
         id="rect2904"
         width="258.48425"
         height="136.89842"
         x="-326.33734"
         y="1281.0106"
         transform="matrix(0.70824989,-0.70596182,0.70824989,0.70596182,0,0)" />
      <circle
         style="opacity:1;fill:#000000;fill-opacity:1;fill-rule:nonzero;stroke:#000000;stroke-width:0;stroke-miterlimit:4;stroke-dasharray:none;stroke-dashoffset:0;stroke-opacity:1;paint-order:normal"
         id="path2921"
         cx="61.436581"
         cy="1656.9058"
         r="19.386318"
         transform="matrix(0.70824989,-0.70596182,0.70824989,0.70596182,0,0)" />
      <circle
         id="path2925"
         style="fill:#000000;stroke:#000000;stroke-width:0.26820046;stroke-miterlimit:4;stroke-dasharray:none;stroke-opacity:1"
         cx="61.438591"
         cy="1536.9558"
         r="4.0230069"
         transform="matrix(0.70824989,-0.70596182,0.70824989,0.70596182,0,0)" />
      <path
         style="fill:none;stroke:#000000;stroke-width:14.21659756;stroke-linecap:butt;stroke-linejoin:miter;stroke-miterlimit:4;stroke-dasharray:none;stroke-opacity:1"
         d="m 1131.1437,1040.7456 83.3993,83.1308"
         id="path2927"
         inkscape:connector-curvature="0" />
      <path
         style="fill:none;stroke:#000000;stroke-width:14.21659756;stroke-linecap:butt;stroke-linejoin:miter;stroke-miterlimit:4;stroke-dasharray:none;stroke-opacity:1"
         d="m 988.45507,1081.0658 226.76763,43.4874 -43.6983,-225.96541"
         id="path2933"
         inkscape:connector-curvature="0" />
      <path
         d="m 820.2605,1335.4549 v 95.609 c 0,2.6522 0.4335,5.2516 1.3589,7.6761 0.9253,2.3225 2.195,4.3081 3.838,6.075 1.6431,1.7687 3.5995,3.2151 5.7562,4.3153 2.1586,0.9964 4.4884,1.5702 6.9548,1.6758 h 0.08 40.6922 1.9181 v -0.1566 c 2.2569,-0.2168 4.421,-0.8926 6.4775,-1.9965 2.0529,-1.1038 3.7561,-2.5483 5.197,-4.3171 1.4372,-1.7687 2.614,-3.7051 3.4355,-5.9146 0.9254,-2.2114 1.3589,-4.5722 1.3589,-7.1151 h -11.1098 c 0,2.0948 -0.7214,3.8927 -2.1604,5.4337 -1.3389,1.4409 -3.0639,2.1604 -5.1186,2.1604 h -40.6904 c -1.9527,-0.1111 -3.5411,-0.878 -4.8763,-2.317 -1.3352,-1.5447 -2.0001,-3.4155 -2.0001,-5.5176 v -43.5721 c 0,-2.2077 0.663,-3.9965 2.0001,-5.4355 1.4372,-1.5429 3.1404,-2.3171 5.1969,-2.3171 h 58.7605 v -11.9113 h -58.7641 -0.3989 c -1.2332,0 -2.4665,0.1476 -3.5976,0.4827 -1.0292,0.2168 -2.0675,0.5684 -3.1987,1.1185 v -33.9779 h -11.1135 v 0 z m 496.6927,0 v 0.08 h -80.8215 -81.623 -81.623 -81.62294 -84.74156 v 11.5087 h 84.74156 81.62294 81.623 81.623 80.8215 v 74.4277 1.5211 27.8172 h 11.1098 v -23.6622 -5.1952 c 0.2058,-1.878 0.9782,-3.4701 2.3225,-4.7998 1.4372,-1.3243 3.0256,-1.9965 4.8745,-1.9965 h 40.4517 c 2.0548,0 3.6978,0.7742 5.0403,2.3153 1.4355,1.4372 2.1586,3.3098 2.1586,5.5175 v 27.8173 h 11.1135 v -27.8173 c 0,-2.767 -0.4354,-5.2716 -1.3589,-7.5941 -0.9254,-2.3189 -2.2752,-4.39 -3.9164,-6.1588 1.6412,-1.878 2.9928,-3.9929 3.9164,-6.3154 0.9235,-2.317 1.3589,-4.7816 1.3589,-7.4338 v -28.0578 h -11.1135 v 28.0577 c 0,2.0966 -0.7213,3.8927 -2.1586,5.4356 -1.3406,1.5483 -2.9855,2.317 -5.0403,2.317 h -31.9741 -8.4776 c -2.6741,0 -5.0348,0.5228 -7.197,1.5174 v -68.912 -0.3971 h -11.1098 z m -669.52932,0.1566 v 51.4031 0.6393 43.41 c 0,2.7652 0.51368,5.4046 1.43904,7.8346 1.02555,2.3225 2.35348,4.3845 3.99654,6.1551 1.64124,1.7688 3.51746,3.1349 5.67603,4.2388 2.26058,0.9928 4.70695,1.5156 7.27538,1.5156 h 40.37158 c 2.46642,0 4.79621,-0.5228 6.95478,-1.5156 2.26058,-1.1039 4.19327,-2.47 5.83633,-4.2388 1.64124,-1.7706 2.9127,-3.8326 3.83624,-6.1551 1.02555,-2.43 1.59752,-5.0694 1.59752,-7.8346 v -43.41 c 0,-2.6467 -0.57015,-5.1113 -1.59752,-7.4338 -0.92536,-2.43 -2.195,-4.5449 -3.83624,-6.3154 -1.64306,-1.7688 -3.57575,-3.1623 -5.83633,-4.1587 -2.16039,-1.1039 -4.49018,-1.5975 -6.95478,-1.5975 h -40.37158 c -2.67408,0 -5.11863,0.4426 -7.27538,1.4409 v -33.9761 h -11.11161 z m 86.41921,32.3803 v 63.0739 c 0,2.6522 0.51368,5.2516 1.44086,7.6762 1.02919,2.4336 2.35166,4.5448 3.99654,6.3154 1.64124,1.7687 3.51929,3.1367 5.67421,4.2406 2.2624,0.9927 4.70695,1.5155 7.27537,1.5155 h 40.37163 c 2.4664,0 4.8308,-0.5719 7.197,-1.6776 v 14.4669 c 0,2.1003 -0.6649,3.8417 -2.0019,5.2789 -1.1166,1.2988 -2.4446,2.0311 -3.9947,2.3171 h -71.71182 -74.8267 v 12.0679 h 74.8267 70.83012 1.2005 v -0.076 c 2.0037,-0.2331 3.8854,-0.7596 5.6742,-1.6813 2.2605,-0.9927 4.2734,-2.3881 5.9146,-4.155 1.6449,-1.7706 2.9127,-3.8818 3.8363,-6.3154 0.9253,-2.3189 1.3589,-4.7835 1.3589,-7.4375 v -32.537 -10.7145 -52.3594 h -11.1117 v 52.3594 10.7145 c 0,2.2096 -0.7213,4.1313 -2.1585,5.6742 -1.3352,1.4391 -2.9819,2.1622 -5.0385,2.1622 h -40.37159 c -2.05474,0 -3.83806,-0.7195 -5.27711,-2.1622 -1.33521,-1.5447 -1.99644,-3.4646 -1.99644,-5.6742 v -63.0739 h -11.10797 z m 191.14531,0 c -2.5666,0 -5.0166,0.4937 -7.2736,1.5976 -2.1585,0.9964 -4.0329,2.3899 -5.676,4.155 -1.6412,1.7687 -2.971,3.8854 -3.9947,6.319 -0.9254,2.4337 -1.3589,4.9474 -1.3589,7.5942 v 43.4081 c 0,2.767 0.4335,5.4083 1.3589,7.8365 1.0255,2.3225 2.3535,4.3845 3.9947,6.1514 1.6449,1.7688 3.5193,3.1404 5.676,4.2388 2.257,0.9982 4.707,1.5156 7.2736,1.5156 H 965.36 c 2.4627,0 4.85076,-0.5228 7.11686,-1.5156 2.2569,-1.1002 4.1932,-2.47 5.8363,-4.2388 1.6412,-1.7669 2.9127,-3.8326 3.8362,-6.1514 1.0256,-2.4282 1.5976,-5.0695 1.5976,-7.8365 h -11.1135 c 0,2.2096 -0.7213,4.1314 -2.1604,5.6742 -1.3352,1.4391 -3.06386,2.1623 -5.11676,2.1623 h -40.3716 c -2.0565,0 -3.8362,-0.7196 -5.2753,-2.1623 -1.337,-1.5447 -1.9982,-3.4646 -1.9982,-5.6742 v -15.671 h 47.6451 c 2.4628,0 4.79806,-0.5264 6.95476,-1.5155 2.1567,-0.9946 4.0348,-2.3371 5.676,-3.9948 1.6431,-1.6576 2.9674,-3.5502 3.9966,-5.7561 1.0237,-2.3189 1.654,-4.8636 1.7578,-7.5159 v -9.1151 c 0,-2.6468 -0.5702,-5.1114 -1.5975,-7.4339 -0.9254,-2.43 -2.195,-4.5448 -3.8381,-6.319 -1.6431,-1.7651 -3.5776,-3.1586 -5.8363,-4.155 -2.2624,-1.1039 -4.65226,-1.5976 -7.11326,-1.5976 z m 68.03396,0 18.54724,63.3162 c 0.7195,2.5429 1.5866,5.0093 2.7178,7.4339 1.1294,2.3225 2.4537,4.441 3.9965,6.3154 1.5393,1.7687 3.3226,3.1367 5.2753,4.2406 2.0584,0.9927 4.4447,1.5155 7.1187,1.5155 h 0.7177 0.7997 c 2.5684,0 4.8964,-0.5228 6.953,-1.5155 2.0565,-1.1039 3.8125,-2.4719 5.3572,-4.2406 1.5374,-1.8744 2.8052,-3.9911 3.8363,-6.3154 1.1275,-2.4246 2.0802,-4.891 2.7979,-7.4339 l 12.7929,-43.8107 12.7893,43.8107 c 0.7214,2.5429 1.6722,5.0093 2.8016,7.4339 1.1257,2.3225 2.4537,4.441 3.9947,6.3154 1.5411,1.7687 3.3226,3.1367 5.2753,4.2406 2.0547,0.9927 4.3645,1.5155 7.0386,1.5155 h 0.7996 0.7979 c 2.5648,0 4.8144,-0.5228 6.8746,-1.5155 2.0511,-1.1039 3.8891,-2.4719 5.432,-4.2406 1.5392,-1.8744 2.8106,-3.9911 3.838,-6.3154 1.1312,-2.4246 2.0784,-4.891 2.7998,-7.4339 l 18.6238,-63.3162 h -11.5889 l -18.4671,63.3162 c -0.6212,1.991 -1.5666,3.7288 -2.7998,5.2716 -1.1276,1.5538 -2.6613,2.3226 -4.7142,2.3226 h -0.7979 -0.7997 c -2.062,0 -3.6431,-0.7706 -4.88,-2.3226 -1.1257,-1.5428 -2.0219,-3.2861 -2.634,-5.2716 l -18.5472,-63.3162 h -11.5124 l -18.5455,63.3162 c -0.6266,1.991 -1.4864,3.7288 -2.7214,5.2716 -1.1312,1.5538 -2.7433,2.3226 -4.798,2.3226 h -0.7979 -0.7213 c -2.0621,0 -3.7233,-0.7706 -4.9547,-2.3226 -1.133,-1.5428 -2.0274,-3.2861 -2.6413,-5.2716 l -18.4671,-63.3162 z m 169.47934,0 c -2.5666,0 -5.0166,0.4937 -7.2735,1.5976 -2.1586,0.9964 -4.0348,2.3899 -5.676,4.155 -1.6413,1.7687 -2.9728,3.8854 -3.9948,6.319 -0.929,2.4337 -1.3607,4.9474 -1.3607,7.5942 v 43.4081 c 0,2.767 0.4317,5.4083 1.3607,7.8365 1.0238,2.3225 2.3535,4.3845 3.9948,6.1514 1.6412,1.7688 3.5192,3.1404 5.676,4.2388 2.2569,0.9982 4.7069,1.5156 7.2735,1.5156 h 40.3698 c 2.4664,0 4.8527,-0.5228 7.1187,-1.5156 2.2551,-1.1002 4.1933,-2.47 5.8345,-4.2388 1.6431,-1.7669 2.9146,-3.8326 3.8363,-6.1514 1.0237,-2.4282 1.5993,-5.0695 1.5993,-7.8365 h -11.1134 c 0,2.2096 -0.7177,4.1314 -2.1586,5.6742 -1.3388,1.4391 -3.0639,2.1623 -5.1204,2.1623 h -40.3698 c -2.0566,0 -3.8344,-0.7196 -5.2753,-2.1623 -1.337,-1.5447 -1.9983,-3.4646 -1.9983,-5.6742 v -15.671 h 47.6434 c 2.4664,0 4.7998,-0.5264 6.9566,-1.5155 2.1585,-0.9946 4.0348,-2.3371 5.676,-3.9948 1.6412,-1.6576 2.9692,-3.5502 3.9947,-5.7561 1.0237,-2.3189 1.6558,-4.8636 1.7615,-7.5159 v -9.1151 c 0,-2.6468 -0.5738,-5.1114 -1.5994,-7.4339 -0.9235,-2.43 -2.1931,-4.5448 -3.8362,-6.319 -1.6412,-1.7688 -3.5794,-3.1586 -5.8345,-4.155 -2.2624,-1.1039 -4.6541,-1.5976 -7.1187,-1.5976 z m 86.4211,0 c -2.5666,0 -5.0166,0.4937 -7.2736,1.5976 -2.164,0.9964 -4.0348,2.3899 -5.676,4.155 -1.6431,1.7687 -2.9728,3.8854 -3.9965,6.319 -0.9254,2.3225 -1.4409,4.8327 -1.4409,7.5942 v 63.1558 h 11.1152 v -63.1558 c 0,-2.2078 0.6558,-3.9947 1.9983,-5.4356 1.4391,-1.5429 3.2187,-2.3171 5.2753,-2.3171 h 40.3752 c 2.0493,0 3.6924,0.7724 5.0349,2.3171 1.4372,1.4409 2.1585,3.2278 2.1585,5.4356 h 11.1135 c 0,-2.7615 -0.4937,-5.2717 -1.5156,-7.5942 -0.929,-2.43 -2.1968,-4.5448 -3.8399,-6.319 -1.6449,-1.7651 -3.5739,-3.1586 -5.8363,-4.155 -2.2606,-1.1039 -4.6487,-1.5976 -7.1114,-1.5976 z m -583.11011,11.9113 h 40.37159 c 2.05473,0 3.78159,0.7724 5.11862,2.3171 1.43723,1.4408 2.15857,3.2278 2.15857,5.4356 v 43.4081 c 0,2.2096 -0.72134,4.1313 -2.15857,5.6742 -1.33521,1.4391 -3.06206,2.1622 -5.11862,2.1622 h -40.37159 c -2.05656,0 -3.83624,-0.7195 -5.27711,-2.1622 -1.33339,-1.5447 -1.99827,-3.4646 -1.99827,-5.6742 v -43.4081 -0.3206 c 0.10201,-2.0967 0.82153,-3.8345 2.16039,-5.2753 1.43723,-1.4318 3.16044,-2.1568 5.11499,-2.1568 z m 259.17571,0 H 965.36 c 2.0547,0 3.77966,0.7724 5.11856,2.3171 1.439,1.4408 2.1604,3.2278 2.1604,5.4356 v 8.3136 c -0.1057,2.0985 -0.878,3.8417 -2.3171,5.2771 -1.337,1.4336 -3.00556,2.1604 -4.95826,2.1604 h -47.6433 v -15.7511 c 0,-2.2078 0.6594,-3.9948 1.9964,-5.4356 1.4354,-1.5465 3.2169,-2.3171 5.2717,-2.3171 z m 237.5133,0 h 40.3698 c 2.0566,0 3.7816,0.7724 5.1205,2.3171 1.4372,1.4408 2.1585,3.2278 2.1585,5.4356 v 8.3136 c -0.1056,2.0985 -0.8761,3.8417 -2.317,5.2771 -1.3407,1.4336 -3.0093,2.1604 -4.9602,2.1604 H 1155.23 v -15.7511 c 0,-2.2078 0.6594,-3.9948 1.9983,-5.4356 1.439,-1.5465 3.2169,-2.3171 5.2734,-2.3171 z"
         id="text2824"
         inkscape:connector-curvature="0"
         style="fill:#ffffff;stroke-width:1.821576" />
    </g>
  </g>
</svg>
